<?xml version="1.0" encoding="UTF-8" standalone="no"?>
<!-- Created with Inkscape (http://www.inkscape.org/) -->

<svg
   xmlns:dc="http://purl.org/dc/elements/1.1/"
   xmlns:cc="http://creativecommons.org/ns#"
   xmlns:rdf="http://www.w3.org/1999/02/22-rdf-syntax-ns#"
   xmlns:svg="http://www.w3.org/2000/svg"
   xmlns="http://www.w3.org/2000/svg"
   xmlns:xlink="http://www.w3.org/1999/xlink"
   xmlns:sodipodi="http://sodipodi.sourceforge.net/DTD/sodipodi-0.dtd"
   xmlns:inkscape="http://www.inkscape.org/namespaces/inkscape"
   width="693.91467"
   height="709.66095"
   id="svg2"
   version="1.1"
   inkscape:version="0.48.4 r9939"
   sodipodi:docname="hymanproto.svg"
   inkscape:export-filename="/home/snordhoff/versioning/git/langsci/books/Watters/9566379thpspqzwhykn/figures/hymanproto.png"
   inkscape:export-xdpi="137"
   inkscape:export-ydpi="137">
  <defs
     id="defs4">
    <path
       style="fill:none;stroke:#000000;stroke-width:0;stroke-linecap:butt;stroke-linejoin:miter;stroke-miterlimit:4;stroke-opacity:1;stroke-dasharray:none"
       d="m 568.27895,200.91925 c 44.79659,13.38935 64.66502,-4.58138 86.21111,-8.80599"
       id="path3960-3"
       inkscape:connector-curvature="0"
       sodipodi:nodetypes="cc" />
    <path
       style="fill:none;stroke:#000000;stroke-width:4;stroke-linecap:butt;stroke-linejoin:miter;stroke-miterlimit:4;stroke-opacity:1;stroke-dasharray:none;stroke-dashoffset:0"
       d="m 415.19759,27.862806 4.12769,7.526974 c 0,0 7.28417,-2.913667 8.25539,-3.156473 0.97123,-0.242805 6.55575,3.399279 7.76978,3.642084 1.21403,0.242806 10.19784,3.88489 10.19784,3.88489 l 0.72841,8.498196 c 0,0 -6.07014,23.309339 -6.55575,24.766172 -0.48561,1.456834 4.61331,6.555752 4.61331,6.555752 0,0 6.79856,3.642084 8.741,4.127695 1.94245,0.485611 9.46942,6.312946 9.46942,6.312946 0,0 0.97122,5.098917 1.21403,6.312946 0.2428,1.214028 7.04136,0.485611 7.04136,0.485611 l -0.48561,11.169061 5.34172,11.89747 11.87197,4.08455 10.54306,-1.3161 c 0,0 13.22009,-5.49406 13.90685,-5.66575 0.68676,-0.17169 9.44292,3.77717 10.47306,4.46392 1.03014,0.68676 7.55434,7.21096 7.55434,7.21096 l -1.03014,50.82009 c 0,0 4.63562,1.54521 5.66575,1.37352 1.03014,-0.17169 6.18083,-2.57534 6.86758,-3.2621 0.68676,-0.68676 5.66576,2.06027 6.52421,2.06027 0.85844,0 17.68401,-3.09041 17.68401,-3.09041 l 7.72603,0.85845 5.32237,4.46392 c 0,0 7.38265,-4.46392 7.89772,-4.46392 0.51507,0 20.43105,10.98813 20.43105,10.98813 l 4.12055,-3.94886 4.12055,-2.40366 c 0,0 6.18082,-0.34337 6.86758,-0.34337 0.68675,0 5.49406,-2.57535 5.49406,-2.57535 l 5.66575,-4.46392 -0.17169,-4.979 c 0,0 -0.68676,-5.83744 -0.51507,-6.69589 0.17169,-0.85845 3.43379,-5.83744 3.43379,-5.83744 0,0 5.66576,-2.23197 7.03927,-2.40366 1.37352,-0.17168 12.70503,1.03014 13.90685,1.20183"
       id="path3031-0"
       inkscape:connector-curvature="0"
       sodipodi:nodetypes="ccssccscscscccccssccssscccscccscccscsc" />
  </defs>
  <sodipodi:namedview
     id="base"
     pagecolor="#ffffff"
     bordercolor="#666666"
     borderopacity="1.0"
     inkscape:pageopacity="0.0"
     inkscape:pageshadow="2"
     inkscape:zoom="1.0296303"
     inkscape:cx="210.82661"
     inkscape:cy="290.8715"
     inkscape:document-units="px"
     inkscape:current-layer="layer9"
     showgrid="false"
     fit-margin-top="0"
     fit-margin-left="0"
     fit-margin-right="0"
     fit-margin-bottom="0"
     inkscape:window-width="1920"
     inkscape:window-height="1178"
     inkscape:window-x="0"
     inkscape:window-y="0"
     inkscape:window-maximized="1" />
  <metadata
     id="metadata7">
    <rdf:RDF>
      <cc:Work
         rdf:about="">
        <dc:format>image/svg+xml</dc:format>
        <dc:type
           rdf:resource="http://purl.org/dc/dcmitype/StillImage" />
        <dc:title />
      </cc:Work>
    </rdf:RDF>
  </metadata>
  <g
     inkscape:groupmode="layer"
     id="layer9"
     inkscape:label="background"
     style="display:inline">
    <rect
       style="fill:#ffffff;fill-opacity:1;fill-rule:nonzero;stroke:#000000;stroke-width:1;stroke-linecap:round;stroke-linejoin:round;stroke-miterlimit:4;stroke-opacity:1;stroke-dasharray:none;stroke-dashoffset:0"
       id="rect3955"
       width="1004.244"
       height="837.19373"
       x="-71.870461"
       y="-50.80621" />
    <text
       xml:space="preserve"
       style="font-size:18px;font-style:normal;font-variant:normal;font-weight:normal;font-stretch:normal;text-align:start;line-height:125%;letter-spacing:0px;word-spacing:0px;writing-mode:lr-tb;text-anchor:start;fill:#000000;fill-opacity:1;stroke:none;font-family:Linux Biolinum O;-inkscape-font-specification:Linux Biolinum O"
       x="112.6618"
       y="249.30151"
       id="text3995"
       sodipodi:linespacing="125%"><tspan
         sodipodi:role="line"
         id="tspan3997"
         x="112.6618"
         y="249.30151">Modelle</tspan></text>
    <text
       xml:space="preserve"
       style="font-size:17.81249998px;font-style:normal;font-variant:normal;font-weight:normal;font-stretch:normal;text-align:start;line-height:125%;letter-spacing:0px;word-spacing:0px;writing-mode:lr-tb;text-anchor:start;fill:#000000;fill-opacity:1;stroke:none;display:inline;font-family:Arimo;-inkscape-font-specification:Arimo;text-indent:0;text-decoration:none;text-transform:none;direction:ltr;block-progression:tb;baseline-shift:baseline;color:#000000;fill-rule:nonzero;marker:none;visibility:visible;overflow:visible;enable-background:accumulate"
       x="-168.56624"
       y="134.67938"
       id="text3918-3"
       sodipodi:linespacing="125%"
       transform="matrix(0.16957184,-0.98551783,0.98551783,0.16957184,0,0)"
       inkscape:transform-center-x="-27.453897"
       inkscape:transform-center-y="0.53796091"><tspan
         sodipodi:role="line"
         id="tspan3920-5"
         x="-168.56624"
         y="134.67938">Cameroon</tspan></text>
    <path
       style="fill:none;stroke:#000000;stroke-width:0;stroke-linecap:butt;stroke-linejoin:miter;stroke-miterlimit:4;stroke-opacity:1;stroke-dasharray:none"
       d="m 568.27895,200.91925 c 44.79659,13.38935 64.66502,-4.58138 86.21111,-8.80599"
       id="path3960"
       inkscape:connector-curvature="0"
       sodipodi:nodetypes="cc" />
  </g>
  <g
     inkscape:label="Layer 1"
     inkscape:groupmode="layer"
     id="layer1"
     transform="translate(-82.066086,-163.73028)"
     style="display:inline" />
  <g
     inkscape:groupmode="layer"
     id="layer2"
     inkscape:label="orig"
     style="opacity:0.38636361;display:none"
     transform="translate(-82.066086,-163.73028)">
    <image
       y="166.48817"
       x="90.614037"
       id="image3064"
       xlink:href="file:///home/snordhoff/versioning/git/langsci/books/Watters/9566379thpspqzwhykn/figures/hymanprotomap.png"
       height="699"
       width="683"
       transform="matrix(0.99998215,0.00597474,-0.00597474,0.99998215,0,0)"
       style="stroke-width:2;stroke-miterlimit:4;stroke-dasharray:none" />
  </g>
  <g
     inkscape:groupmode="layer"
     id="layer3"
     inkscape:label="borders"
     style="display:inline">
    <g
       inkscape:groupmode="layer"
       id="layer4"
       inkscape:label="solid"
       style="display:inline">
      <path
         style="fill:none;stroke:#000000;stroke-width:1;stroke-linecap:butt;stroke-linejoin:miter;stroke-miterlimit:4;stroke-opacity:1;stroke-dasharray:none"
         d="m 484.3793,681.98056 3.80403,-8.82207 c 0,0 2.67091,-1.78061 3.85798,-2.96768 1.18707,-1.18707 2.67091,-5.04506 2.67091,-5.04506 l 2.37415,-5.34182 c 0,0 0.59353,-2.37414 0.8903,-4.15475 0.29677,-1.78061 0,-2.96768 0.59354,-5.93536 0.59353,-2.96768 0.8903,-8.30951 0.8903,-8.30951 l 1.18707,-6.82566 c 0,0 -0.59353,-1.48384 1.18707,-4.15475 1.78061,-2.67091 5.63859,-7.4192 7.12243,-8.01274 1.48384,-0.59353 5.6386,-1.18707 8.01274,-2.37414 2.37414,-1.18707 7.12243,-3.85798 7.12243,-3.85798 0,0 2.37415,-2.07738 1.78061,-3.26445 -0.59354,-1.18707 -3.56122,-3.85799 -3.56122,-5.63859 0,-1.78061 -0.29676,-3.26445 0.29677,-5.34183 0.59354,-2.07737 0.89031,-3.85798 1.78061,-5.34182 0.8903,-1.48384 2.07738,-2.07738 1.78061,-3.85798 -0.29677,-1.78061 -3.56122,-3.26445 -3.26445,-5.34183 0.29677,-2.07737 2.07738,-6.23213 2.07738,-6.23213 l 2.07737,-5.63859 7.4192,-3.56121 c 0,0 5.34182,-2.07738 5.63859,-3.26445 0.29677,-1.18707 0.59354,-3.56122 0.59354,-3.56122 0,0 -1.48384,-3.85798 1.48384,-6.23212 2.96768,-2.37415 13.20617,-8.16113 13.20617,-8.16113 2.52253,-3.70959 3.11607,-9.34818 3.11607,-9.34818 l -0.89031,-3.26445 -4.15475,-6.5289 2.37415,-4.45152 5.04505,-2.07737 c 0,0 1.78061,-1.18708 2.67091,-3.56122 0.89031,-2.37414 2.96768,-10.09011 2.96768,-10.09011 0,0 -0.29677,-5.93536 -0.59353,-7.4192 -0.29677,-1.48384 3.85798,-5.04506 -0.89031,-5.04506 -4.74828,0 -1.18707,-11.87071 -1.18707,-11.87071 l -3.56121,-4.74829 c 0,0 0.8903,-4.15475 1.48384,-5.34183 0.59353,-1.18707 3.85798,-8.3095 3.85798,-8.3095 l 0.29677,-8.60627 1.18707,-4.45152 6.82566,-4.74829 c 0,0 -1.18707,-6.23213 1.48384,-6.52889 2.67091,-0.29677 4.45152,0.59353 5.93536,-0.59354 1.48384,-1.18707 3.26445,-5.63859 3.26445,-5.63859 l 5.63859,-2.37415 c 0,0 1.48384,-2.67091 1.48384,-4.74828 0,-2.07738 0.59354,-5.93536 0.59354,-5.93536 l 7.12243,-0.59354 -1.78061,-5.04505 -7.4192,-1.78061 -3.56121,-3.56122 c 0,0 -1.78061,-5.63859 -1.48384,-6.82566 0.29676,-1.18707 1.18707,-8.60627 1.18707,-8.60627 l -1.18707,-5.93536 -0.59354,-3.85799 -3.26445,-6.82566 -0.29677,-2.67091 2.67092,-4.15475 2.07737,-2.96768 -2.07737,-7.12243 -2.67092,-2.37415 1.18708,-2.96768 2.67091,-3.26445 2.07737,-9.1998 3.85799,-2.37415 c 0,0 1.7806,-2.96768 2.67091,-4.45152 0.8903,-1.48384 1.78061,-5.34182 1.78061,-5.34182 l -2.67092,-4.74829 -4.15475,-7.4192 c 0,0 -3.26444,-3.85798 -2.67091,-5.63859 0.59354,-1.78061 -3.85798,-9.49657 -3.85798,-9.49657 l 0.8903,-1.78061 3.85799,-5.93536 -1.48384,-2.37415 -4.45152,-0.59353 c 0,0 1.18707,-3.56122 2.07737,-4.74829 0.89031,-1.18707 2.67091,-5.34182 2.67091,-5.34182 l 0.89031,-2.96768 4.45152,-3.26445 0,-3.56122 1.18707,-3.85798 -6.5289,0 c 0,0 -2.67091,-1.48384 -5.34182,-2.07738 -2.67091,-0.59353 -7.71597,-0.59353 -7.71597,-0.59353 l -10.09011,0.29677 -5.63859,-0.89031 -0.59354,-4.15475"
         id="path3092"
         inkscape:connector-curvature="0"
         sodipodi:nodetypes="ccsccssccssscsssssscccscsccccccscssccsccccssccscccccscccccccccccccscccscccccsccccccscccc" />
      <path
         style="fill:none;stroke:#000000;stroke-width:1;stroke-linecap:butt;stroke-linejoin:miter;stroke-miterlimit:4;stroke-opacity:1;stroke-dasharray:none"
         d="m 659.41845,342.55896 c -1.18707,-0.59354 -7.71597,-0.29677 -7.71597,-0.29677 l -7.12243,4.74829 -7.4192,-1.18707 -4.74829,2.67091 -10.98041,0.8903 c 0,0 -2.96768,2.37415 -4.45152,3.26445 -1.48384,0.8903 -8.90304,3.26445 -8.90304,3.26445 l -8.01274,-0.59354 c 0,0 -1.7806,2.96768 -3.56121,3.26445 -1.78061,0.29677 -8.3095,0.59354 -8.3095,0.59354 l -3.38953,-3.0314"
         id="path3098"
         inkscape:connector-curvature="0"
         sodipodi:nodetypes="ccccccsccscc" />
      <path
         style="fill:none;stroke:#000000;stroke-width:1;stroke-linecap:butt;stroke-linejoin:miter;stroke-miterlimit:4;stroke-opacity:1;stroke-dasharray:none"
         d="m 463.57854,682.70898 c 0,0 -5.66555,-8.66019 -6.85262,-10.14403 -1.18707,-1.48384 -1.44336,-4.91521 -3.26445,-6.52889 -1.10065,-0.9753 -4.15475,-0.29677 -4.15475,-1.48384 0,-1.18708 -1.13096,-6.48403 0.29677,-9.19981 1.08639,-2.06649 5.63859,-2.37414 5.63859,-4.15475 0,-1.78061 1.68169,-9.69442 0,-8.90304 -1.68169,0.79138 -3.39609,1.51668 -5.04506,2.37414 -0.82798,0.43055 -1.48484,1.20088 -2.37414,1.48384 -1.33312,0.42418 -2.76983,0.39569 -4.15475,0.59354 -1.38492,0.19785 -4.15475,-4.45152 -5.04506,-5.63859 -0.8903,-1.18708 -1.58275,-4.45152 -3.26444,-4.45152 -1.68169,0 -3.40565,0.37472 -5.04506,0 -1.89956,-0.43419 -3.56121,-1.58277 -5.34182,-2.37415 -1.78061,-0.79138 -0.89031,-1.48384 -0.89031,-2.67091 0,-1.18707 0.89031,-4.15475 0.89031,-6.23213 0,-2.07737 0.18662,-2.3281 -0.59354,-2.96768 -2.29503,-1.88147 -6.52889,0.29677 -8.90304,0 -2.37414,-0.29676 -3.9569,-2.37415 -5.63859,-1.48384 -1.68169,0.89031 -3.69956,4.01641 -5.04506,2.67092 -2.11704,-2.11704 0.15186,-6.22518 -1.18707,-8.90304 -0.75207,-1.50415 -2.96768,-1.58277 -4.45152,-2.37415 -1.48384,-0.79138 -4.15475,-3.26445 -4.15475,-4.74829 0,-1.48384 1.12787,-7.00442 -1.18707,-8.90303 -2.37606,-1.94873 -8.01274,0.59353 -9.19981,0.59353 -1.18707,0 -4.45152,0.59354 -5.93536,-2.07737 -1.48384,-2.67092 -5.93536,-7.71597 -7.4192,-7.4192 -1.48384,0.29676 -9.79333,0.39568 -11.87071,0.74191 -2.07738,0.34623 -4.16795,0.62094 -6.23213,1.03869 -2.09301,0.42359 -4.17885,0.89719 -6.23213,1.48384 -1.41401,0.404 -3.16811,0.39334 -4.15475,1.48384 -1.11254,1.22965 -0.98923,3.16553 -1.48384,4.74829 -0.49461,1.58276 1.48384,2.37415 2.37414,3.56122 0.8903,1.18707 3.4623,2.76983 4.74829,3.26444 1.28599,0.49461 2.91786,0.47657 3.85798,1.48384 0.67833,0.72679 0.19785,1.97845 0.29677,2.96768 0.0989,0.98923 -0.29677,0.59354 -2.07738,1.18708 -1.7806,0.59353 -5.14397,2.17629 -6.82566,2.37414 -1.68169,0.19785 -3.36337,0.39569 -5.04506,0.59354 -1.68169,0.19785 -3.26444,-2.07738 -4.45152,-3.56122 -1.18707,-1.48384 0.3957,-3.66014 -2.07737,-4.74829 -2.47307,-1.08815 -4.72989,-3.5247 -7.4192,-3.26444 -3.20604,5.23278 -0.7321,5.2466 -0.59354,7.41919 0.29677,5.6386 1.87953,5.6386 0.29677,6.5289 -1.58276,0.8903 -3.16553,1.78061 -4.74829,2.67091 -1.58276,0.8903 -4.45152,-0.29677 -4.74828,0.89031 -0.29677,1.18707 -1.48384,4.74828 -3.26445,4.74828 -1.78061,0 -4.5777,-0.068 -6.82567,0.29677 -1.42174,0.23072 -3.26444,0 -4.15475,1.18707 -0.8903,1.18708 -7.91381,5.34182 -5.93536,7.12243 1.97845,1.78061 3.95691,3.56122 5.93536,5.34183 1.97845,1.78061 2.37415,3.26445 2.67091,4.45152 0.29677,1.18707 1.78061,4.74829 1.78061,5.93536 0,1.18707 -1.89596,4.5055 -2.19273,6.28611 -0.29677,1.78061 0.0164,6.37599 -0.18141,8.55229 -0.19785,2.1763 -0.39569,4.35259 -0.59354,6.52889 -0.19785,2.1763 2.96768,3.56122 4.45152,4.15475 1.48384,0.59354 7.12243,0.59354 8.30951,0 1.18707,-0.59353 2.57199,-1.58276 2.67091,-0.8903 0.0989,0.69246 0.24693,1.37967 0.29677,2.07738 0.14817,2.07444 0.19784,4.15475 0.29676,6.23212"
         id="path3100"
         inkscape:connector-curvature="0"
         sodipodi:nodetypes="cssssssssssssssssssssssssssssssssssssssssccsssssssssssssssssc" />
      <path
         style="fill:none;stroke:#000000;stroke-width:1;stroke-linecap:butt;stroke-linejoin:miter;stroke-miterlimit:4;stroke-opacity:1;stroke-dasharray:none"
         d="m 361.77563,420.49227 c 0,0 -1.25908,3.77723 -1.67878,5.45601 -0.41969,1.67877 0.4197,7.97417 0.4197,7.97417 l -1.25908,11.33172 -0.4197,3.77724 -5.8757,2.09847 -5.87571,-0.4197 -5.45601,2.93786 -2.09847,3.35754 -0.41969,3.77724 -4.61663,3.35755 -4.19693,4.61662 0,5.03632 6.71509,5.45602 2.09847,3.77724 6.71509,2.09846 2.51816,2.09847 2.51816,4.61663 c 0,0 3.77724,-2.09847 5.45601,-2.09847 1.67878,0 2.51816,0.41969 2.93786,2.09847 0.41969,1.67877 2.09846,5.03632 2.09846,5.03632 l 2.93786,1.67877 0.41969,3.77724 -0.41969,2.51816 2.09846,4.61663 1.67878,4.19693 -1.67878,2.93785 -5.03632,2.93785 -0.41969,6.29541 -1.67877,4.19693 -5.03632,4.19693 -3.77724,-1.67877 -0.83939,5.8757 c 0,0 -2.51816,2.51816 -2.51816,4.19694 0,1.67877 -0.83939,2.51816 -0.83939,2.51816 0,0 -2.51816,0.83938 -2.51816,2.51816 0,1.67877 0.4197,6.29539 0.4197,6.29539 0,0 2.51816,4.19694 4.19693,4.19694 1.67877,0 5.87571,-0.4197 5.87571,-0.4197 l 4.61662,1.67878 2.09847,2.93785 -0.83939,5.03632 0.83939,2.93785 4.19693,1.67878 -1.25908,4.19693 c 0,0 -1.67877,2.93785 -2.09846,4.61663 -0.4197,1.67877 2.51816,4.61662 2.51816,4.61662 l 7.02981,4.31138"
         id="path3104"
         inkscape:connector-curvature="0"
         sodipodi:nodetypes="csccccccccccccccccsscccccccccccccscscscccccccscc" />
      <path
         style="fill:none;stroke:#000000;stroke-width:1;stroke-linecap:butt;stroke-linejoin:miter;stroke-miterlimit:4;stroke-opacity:1;stroke-dasharray:none"
         d="m 350.73004,491.8306 c 0,0 -6.67543,-0.54371 -9.93908,-1.24955 -4.15193,-0.89795 -7.95052,-3.29617 -12.17111,-3.77724 -3.76322,-0.42893 -7.59276,1.4444 -11.33171,0.83938 -3.59064,-0.58103 -6.49065,-3.56477 -10.07264,-4.19693 -3.03404,-0.53546 -6.41436,-0.82367 -9.23326,0.41969 -2.17222,0.95812 -4.7317,2.6818 -5.03632,5.03632 -0.24937,1.92746 2.99609,3.09367 2.93786,5.03632 -0.0605,2.01673 -2.52692,3.1976 -3.35755,5.03632 -0.8941,1.97922 -1.13559,4.19263 -1.67877,6.2954 -0.43279,1.67544 -0.86789,3.35068 -1.25908,5.03632 -0.45282,1.95118 -0.38257,4.07463 -1.25908,5.87571 -0.47813,0.98247 -1.72651,1.49078 -2.09847,2.51816 -0.762,2.10467 -0.27349,4.4935 0,6.71509 0.28191,2.28997 2.11509,4.44947 1.67877,6.71509 -0.58741,3.05019 -3.66667,5.01539 -5.45601,7.55448 -1.56473,2.22037 -2.77767,4.71593 -4.61662,6.7151 -1.34609,1.46337 -2.79821,2.97302 -4.61663,3.77724 -3.49218,1.54447 -8.53676,-0.92293 -11.33172,1.67877 -0.94408,0.8788 -0.8345,2.48746 -0.83939,3.77724 -0.008,2.00301 0.98189,3.89194 1.25908,5.8757 0.29104,2.08289 0.34971,4.19344 0.4197,6.2954 0.0791,2.37695 0,4.75653 0,7.13479 0,2.93785 0,5.87571 0,8.81356 0,2.23836 -0.40863,4.51434 0,6.71509 0.35572,1.91581 0.90553,3.91532 2.09846,5.45602 1.47354,1.90311 3.93354,2.77528 5.87571,4.19693 1.6933,1.23948 3.64755,2.20407 5.03632,3.77724 1.49288,1.69111 1.38012,4.7902 3.35755,5.8757 2.57825,1.41532 5.98819,-1.23694 8.81355,-0.41969 1.64042,0.4745 3.79468,1.27823 4.19694,2.93785 0.70757,2.91921 -2.63307,5.40966 -4.19694,7.97418 -0.88908,1.45797 -3.0868,2.49577 -2.93785,4.19693 0.18983,2.16801 3.23688,2.9336 4.61663,4.61663 0.81138,0.98973 1.18513,2.3311 2.12973,3.1946 0.83014,0.75886 2.96377,1.61278 2.96377,1.61278"
         id="path3108"
         inkscape:connector-curvature="0"
         sodipodi:nodetypes="cssssssssssssssssssssssssssssssssssc" />
      <path
         style="fill:none;stroke:#000000;stroke-width:1;stroke-linecap:butt;stroke-linejoin:miter;stroke-miterlimit:4;stroke-opacity:1;stroke-dasharray:none"
         d="m 204.5016,471.54215 c 0,0 3.66628,6.4481 5.34505,9.38595 1.67877,2.93785 3.35755,8.81356 5.03632,10.49233 1.67877,1.67878 6.71509,7.13479 6.71509,7.13479 l 5.03632,5.03632 5.45602,7.13478 6.2954,2.09847 5.45601,1.25908 c 0,0 2.51816,-2.09847 4.61662,-0.83939 2.09847,1.25908 9.65295,2.51816 9.65295,2.51816 0,0 2.51816,-0.41969 5.87571,-0.41969 3.35754,0 5.8757,0 5.8757,0 0,0 2.93786,0.41969 5.87571,-0.83939 2.93785,-1.25908 3.35755,0.4197 5.45601,-2.09846 2.09847,-2.51816 -0.83938,-3.35755 2.93785,-4.61663 3.77724,-1.25908 4.74847,-2.25116 5.58786,-4.76932 0.83939,-2.51816 2.76837,-3.87042 2.76837,-3.87042"
         id="path3112"
         inkscape:connector-curvature="0"
         sodipodi:nodetypes="csscccccscscssssc" />
      <path
         style="fill:none;stroke:#000000;stroke-width:1;stroke-linecap:butt;stroke-linejoin:miter;stroke-miterlimit:4;stroke-opacity:1;stroke-dasharray:none"
         d="m 242.16303,681.12181 c 2.51816,-2.09847 2.61318,-5.52147 5.03632,-7.13479 2.14721,-1.42961 5.44819,-0.18954 7.55448,-1.67877 1.07764,-0.76193 2.01525,-2.04038 2.09847,-3.35755 0.1263,-1.99904 -1.50452,-3.72839 -2.51816,-5.45601 -0.96293,-1.64118 -2.40629,-2.96866 -3.35755,-4.61663 -0.68881,-1.1933 -2.18842,-2.49713 -1.67877,-3.77724 0.67271,-1.68968 3.25297,-1.7418 5.03632,-2.09847 2.46926,-0.49385 5.13943,-0.71319 7.55448,10e-6 2.71673,0.80229 4.93188,2.83576 7.13479,4.61662 0.92315,0.74629 1.35635,2.27458 2.51816,2.51816 3.01304,0.63171 6.00944,-1.70008 8.60371,-3.35755 2.04278,-1.30513 3.03091,-4.05196 5.24616,-5.03632 1.79438,-0.79734 3.94981,-0.80242 5.87571,-0.41969 1.84093,0.36584 3.30227,1.79989 5.03632,2.51816 2.0436,0.84649 6.2954,2.09847 6.2954,2.09847"
         id="path3114"
         inkscape:connector-curvature="0"
         sodipodi:nodetypes="cssssssssssssssc" />
      <path
         style="fill:none;stroke:#000000;stroke-width:1;stroke-linecap:butt;stroke-linejoin:miter;stroke-miterlimit:4;stroke-opacity:1;stroke-dasharray:none"
         d="m 260.93472,556.70183 c 0,0 -8.09386,5.61287 -11.6369,9.00432 -1.72101,1.64737 -2.96878,3.73546 -4.61663,5.45601 -1.71195,1.78748 -3.56388,3.4408 -5.45601,5.03632 -1.7541,1.47913 -3.51159,2.97877 -5.45601,4.19693 -1.59056,0.99647 -2.93785,0.4197 -5.03632,2.51816 -2.09847,2.09847 -4.61663,4.19694 -6.2954,4.61663 -1.67877,0.41969 -7.47501,-0.22422 -7.97417,2.51816 -0.44604,2.45055 5.80015,2.12697 5.8757,4.61663 0.10219,3.36763 -5.44744,4.08606 -7.55448,6.71509 -0.90076,1.12392 -1.27963,2.5923 -2.09846,3.77724 -1.35437,1.95994 -2.75894,3.96447 -4.61663,5.45601 -2.3422,1.88056 -6.2954,3.35755 -7.97417,4.19693 -1.67878,0.83939 -6.47095,1.59834 -9.23325,3.35755 -1.66877,1.06278 -3.01165,2.61283 -4.19694,4.19693 -1.05017,1.40352 -1.95253,2.95748 -2.51816,4.61663 -1.00561,2.94975 -0.89087,6.17087 -1.46892,9.23325 -0.425,2.25153 -1.04924,4.19693 -1.46893,6.71509 -0.41969,2.51816 -1.3618,4.23959 1.46893,10.91203 3.04562,7.17896 2.65377,6.35277 5.24616,8.39387 1.73794,1.36835 -1.25908,0 6.2954,2.09846 7.55448,2.09847 5.75062,1.27464 8.39387,2.51816 0.91285,0.42945 2.04214,0.78933 2.51816,1.67878 0.79214,1.48013 0.41969,2.51816 0,5.03632 -0.4197,2.51816 -0.4197,9.62876 -0.4197,9.62876"
         id="path3120"
         inkscape:connector-curvature="0"
         sodipodi:nodetypes="csssssssssssssssssssssssc" />
      <path
         style="fill:none;stroke:#000000;stroke-width:1;stroke-linecap:butt;stroke-linejoin:miter;stroke-miterlimit:4;stroke-opacity:1;stroke-dasharray:none"
         d="m 134.58799,570.05578 c 0,0 -0.79948,10.55812 -1.54521,15.79565 -0.32102,2.25463 -2.29433,4.68663 -1.25908,6.71509 1.88012,3.68388 7.11071,5.7955 11.21724,5.30335 4.33671,-0.51974 5.9634,-7.12879 10.18711,-8.2412 1.64581,-0.43346 3.62086,-0.10563 5.03632,0.83938 2.19529,1.46565 2.65518,4.57257 4.19694,6.71509 1.79955,2.50075 3.25963,5.50744 5.8757,7.13479 2.07458,1.29051 5.1771,0.21701 7.13479,1.67877 1.80751,1.34962 2.20668,3.93559 3.35755,5.87571 1.08947,1.83662 2.26014,3.62412 3.35754,5.45601 0.84352,1.40808 2.47997,4.25412 2.47997,4.25412"
         id="path3126"
         inkscape:connector-curvature="0"
         sodipodi:nodetypes="cssssssssssc" />
      <path
         style="fill:none;stroke:#000000;stroke-width:1;stroke-linecap:butt;stroke-linejoin:miter;stroke-miterlimit:4;stroke-opacity:1;stroke-dasharray:none"
         d="m 20.564972,560.66983 14.689265,-4.19694 c 0,0 7.55448,-5.03631 10.07264,-5.8757 2.518159,-0.83939 5.875706,-6.2954 10.912025,-7.55448 5.03632,-1.25908 12.590799,-5.45601 14.689266,-6.2954 2.098466,-0.83939 13.849879,-5.87571 16.787732,-7.13479 2.937853,-1.25908 11.751412,-5.8757 11.751412,-5.8757 0,0 5.875708,3.77724 6.715098,6.2954 0.83938,2.51816 2.09846,7.97417 2.09846,9.65294 0,1.67878 -0.41969,3.77724 1.25908,5.87571 1.67877,2.09847 8.39387,6.71509 8.39387,6.71509 0,0 4.61662,1.67877 6.71509,2.09847 2.09847,0.41969 3.35755,2.51816 6.2954,0 2.93785,-2.51816 2.51816,-3.77724 4.61663,-3.77724 2.09846,0 14.26957,-2.09847 14.26957,-2.09847 l 3.35754,-1.67877"
         id="path3132"
         inkscape:connector-curvature="0" />
      <path
         style="fill:none;stroke:#000000;stroke-width:1;stroke-linecap:butt;stroke-linejoin:miter;stroke-miterlimit:4;stroke-opacity:1;stroke-dasharray:none"
         d="m 172.3032,434.32309 c 0,0 5.22707,3.3766 6.06645,5.47507 0.83939,2.09846 0,2.09846 3.77724,3.77724 3.77724,1.67877 11.75142,0.83938 13.84988,1.67877 2.09847,0.83939 1.67877,0 5.45601,2.51816 3.77724,2.51816 3.77724,2.51816 3.77724,2.51816"
         id="path3138"
         inkscape:connector-curvature="0"
         sodipodi:nodetypes="cssssc" />
      <path
         style="fill:none;stroke:#000000;stroke-width:1;stroke-linecap:butt;stroke-linejoin:miter;stroke-miterlimit:4;stroke-opacity:1;stroke-dasharray:none"
         d="m 16.291795,364.52043 c 0,0 9.72919,-6.56247 11.407963,-7.82155 1.678773,-1.25908 7.974173,-5.8757 7.974173,-5.8757 0,0 5.875706,7.55448 7.554479,8.39386 1.678773,0.83939 4.616626,1.67878 4.196933,-0.83938 C 47.00565,355.8595 47.00565,349.5641 47.00565,349.5641 l 10.492332,-3.35755 2.51816,-3.77724 12.590799,-7.13478 c 2.937853,-2.51816 9.652946,-7.13479 15.318806,-6.7151 6.924939,-1.67877 10.702179,-4.61662 14.479423,-7.13478 3.77724,-2.51816 5.8757,-3.77724 5.8757,-3.77724 l 10.49233,-10.07264 c 0,0 0.4197,-3.77724 -0.41969,-5.45602 -0.83939,-1.67877 -4.61663,-3.35754 -2.51816,-7.13478 2.09847,-3.77724 4.19693,-7.55448 4.19693,-7.55448 0,0 -3.77724,-9.65295 -4.19693,-11.75141 -0.41969,-2.09847 -0.41969,-5.03632 -0.41969,-5.03632 l -3.77724,-8.81356 -10.07264,-13.0105 0.41969,-13.01049 c 0,0 -3.357547,-7.13478 -5.875705,-10.07264 -2.518159,-2.93785 -5.875705,-18.04681 -5.875705,-18.04681 l 0.419693,-8.81356 -8.393866,-6.71509"
         id="path3140"
         inkscape:connector-curvature="0"
         sodipodi:nodetypes="cscsscccccsccsscsccccsccc" />
      <path
         style="fill:none;stroke:#000000;stroke-width:1;stroke-linecap:butt;stroke-linejoin:miter;stroke-miterlimit:4;stroke-opacity:1;stroke-dasharray:none"
         d="m 113.96582,266.88452 c 0,0 8.14355,-3.52093 11.10278,-1.25908 1.46193,1.11741 0.83939,3.77724 0.83939,5.45601 0,1.67877 -1.67877,5.03632 -0.83939,6.71509 0.83939,1.67878 1.25908,4.19694 2.93786,5.87571 1.67877,1.67877 4.61662,1.25908 10.07264,1.67877 5.45601,0.4197 4.19693,0.83939 6.2954,0.4197 2.09846,-0.4197 2.09846,-5.03632 2.51816,-6.7151 0.41969,-1.67877 1.52459,-3.50817 1.25908,-5.8757 -0.44921,-4.00557 2.22416,-6.8915 4.61662,-5.45602 1.39898,0.83939 2.56546,2.51816 4.19693,2.51816 1.63148,0 2.88949,-1.5423 4.19694,-2.51816 1.82506,-1.36219 2.09846,-2.93785 5.03632,-4.61662 2.93785,-1.67878 4.73435,-3.3894 7.13478,-5.03632 1.66371,-1.14146 3.0285,-3.15874 5.03632,-3.35755 2.55947,-0.25344 5.45602,2.51816 7.13479,2.93785 1.67877,0.4197 3.35755,1.25908 5.03632,2.51816 1.67877,1.25908 2.51816,2.51816 3.77724,4.61663 1.25908,2.09847 0.41969,1.67877 2.51816,4.19693 2.09846,2.51816 4.19693,0.83939 5.03632,5.45602 0.83938,4.61662 -0.15008,3.72324 0.41969,5.45601 0.41226,1.25375 1.58234,2.14286 2.09847,3.35755 1.12786,2.65439 1.87615,5.51838 2.09846,8.39386 0.11911,1.54062 -2.51816,2.93785 -0.41969,4.61663 2.09847,1.67877 3.52966,5.10742 6.2954,5.8757 4.54717,1.26313 9.30678,-1.66015 13.84988,-2.93785 2.42785,-0.68281 4.63992,-2.14892 7.13479,-2.51816 3.04773,-0.45107 7.55447,-0.83939 9.23325,0.41969 1.67877,1.25908 5.11656,6.54994 8.81356,7.97418 2.872,1.10642 6.2954,0 9.23325,0 2.93785,0 9.3892,-1.56325 13.01049,0.83938 0.782,0.51883 0.88234,1.65864 1.25908,2.51816 0.87096,1.98705 1.53888,4.05703 2.30832,6.08555 2.37456,6.26018 3.91406,6.87702 7.34463,7.34464 3.66219,0.49919 6.7104,-3.21943 9.65294,-5.45601 2.04764,-1.55638 3.63735,-3.63735 5.45602,-5.45602 6.94716,-6.94716 13.84988,-6.71509 15.52865,-6.71509 1.67877,0 6.45396,-7.60624 6.2954,-12.1711 -0.13077,-3.76459 -6.2954,-7.55448 -5.87571,-9.65295 0.4197,-2.09847 -2.79795,-6.57519 0.4197,-7.97417 3.21765,-1.39898 6.43529,-2.79796 9.65294,-4.19694 3.21765,-1.39898 1.67877,-0.41969 3.35755,-2.51816 1.67877,-2.09846 1.67877,-6.4353 5.03632,-8.81356 3.35755,-2.37826 7.5231,-3.90537 10.07264,-7.13478 0.79921,-1.01234 -3.85298,0.44818 -3.77724,-0.83939 0.1481,-2.51769 5.32482,-4.03962 4.19693,-6.2954 -1.20345,-2.40689 -7.71904,1.41978 -7.97417,-1.25908 -0.32839,-3.4481 4.75652,-5.03632 7.13478,-7.55448 2.37826,-2.51816 4.19694,-2.93785 6.2954,-5.45601 2.09847,-2.51816 4.61663,-10.49233 4.61663,-10.49233 0.27979,-4.33683 0.99857,-7.59131 2.51816,-10.49234 1.58474,-3.02541 2.4924,-7.9272 5.87571,-8.39386 4.05703,-0.55959 8.19794,-2.67206 12.1711,-1.67877 2.87907,0.71977 4.19693,4.19693 6.2954,6.29539 2.09847,2.09846 6.2954,4.19694 8.39387,4.61663 2.09846,0.41969 4.61662,2.79796 5.8757,5.87571 1.25908,3.07775 2.51816,6.1555 3.77724,9.23325 1.25908,3.07775 2.51816,0.83939 4.19694,0.41969 1.67877,-0.41969 10.07264,-1.67877 11.75141,-1.67877 1.67877,0 6.57519,0.41969 5.8757,2.93785 -0.69949,2.51816 -1.39897,5.03632 -2.09846,7.55448 -0.69949,2.51816 8.81356,3.35755 11.75141,3.77724 2.93785,0.4197 7.55448,2.09847 9.23325,2.09847 1.67878,0 7.47973,-1.20399 10.91203,0 4.22643,1.48255 7.97417,7.13479 10.49233,8.39386 2.51816,1.25908 0,8.39387 5.45601,8.39387 5.45602,0 7.27468,-1.81867 10.07264,0.83939 2.79796,2.65806 4.56105,7.52325 8.39387,7.97417 4.67052,0.54947 8.67366,-3.63734 13.01049,-5.45601 4.33683,-1.81867 10.07264,0 8.81356,2.09846 -1.25908,2.09847 -2.51816,5.45602 -0.83939,6.2954 1.67878,0.83939 10.63223,2.09847 10.07264,4.19694 -0.55959,2.09847 -1.11918,4.19693 -1.67877,6.2954"
         id="path3146"
         inkscape:connector-curvature="0"
         sodipodi:nodetypes="csssssssssssssssssssssssssssssssssssssssssssssssscssssssssssssssssssssssc" />
      <path
         style="fill:none;stroke:#000000;stroke-width:1;stroke-linecap:butt;stroke-linejoin:miter;stroke-miterlimit:4;stroke-opacity:1;stroke-dasharray:none"
         d="m 358.03658,206.44868 c 0,0 -0.87758,-1.67877 -2.97605,-2.93785 -2.09846,-1.25908 -10.91202,-7.13479 -10.91202,-7.13479 0,0 -2.09847,-14.26957 -1.67878,-15.94834 0.4197,-1.67878 -1.67877,-5.87571 -1.25908,-7.97418 0.4197,-2.09846 0.83939,-6.2954 0.83939,-9.65294 0,-3.35755 -0.83939,-12.17111 -0.83939,-12.17111 l -7.55448,-8.39386 c 0,0 -11.33171,-3.35755 -11.33171,-5.03632 0,-1.67878 1.25908,-7.55448 0.83938,-9.23326 -0.41969,-1.67877 -2.51816,-8.39386 -2.51816,-10.07264 0,-1.67877 0,-6.71509 0,-6.71509 l -7.13478,-30.217916 -0.83939,-6.715092 -2.93785,-8.81356 -2.93786,-11.751412 0.4197,0"
         id="path3154"
         inkscape:connector-curvature="0"
         sodipodi:nodetypes="cscsssccssscccccc" />
      <path
         style="fill:none;stroke:#000000;stroke-width:1;stroke-linecap:butt;stroke-linejoin:miter;stroke-miterlimit:4;stroke-opacity:1;stroke-dasharray:none"
         d="m 387.37692,360.47612 c 0,0 -10.07264,-9.23325 -10.49234,-11.75141 -0.41969,-2.51816 -2.93785,-5.87571 -5.03632,-9.23325 -2.09846,-3.35755 -5.8757,-10.07264 -6.29539,-11.75141 -0.4197,-1.67878 -1.67878,-6.7151 -1.67878,-6.7151 0,0 -6.2954,-2.51816 -6.71509,-0.41969 -0.41969,2.09847 -2.09847,6.71509 -2.09847,6.71509 l -2.51816,2.51816 c 0,0 -3.77724,-4.19693 -6.71509,-6.2954 -2.93785,-2.09846 -3.77724,-6.2954 -9.23325,-6.2954 -5.45602,0 -13.01049,1.25908 -13.01049,1.25908 0,0 -5.87571,0.83939 -7.13479,-1.25908 -1.25908,-2.09846 -6.33352,-12.20922 -6.33352,-12.20922"
         id="path3158"
         inkscape:connector-curvature="0"
         sodipodi:nodetypes="cssscsccsscsc" />
      <path
         style="fill:none;stroke:#000000;stroke-width:1;stroke-linecap:butt;stroke-linejoin:miter;stroke-miterlimit:4;stroke-opacity:1;stroke-dasharray:none"
         d="m 146.13294,283.06524 12.93082,2.28578 c 0,0 6.2954,6.71509 6.71509,8.39387 0.4197,1.67877 4.19694,9.23325 6.7151,13.43018 2.51816,4.19694 4.19693,5.45602 5.8757,7.55448 1.67878,2.09847 10.49234,5.87571 10.49234,5.87571 l 2.93785,7.13479 -0.41969,8.39386 1.67877,4.19693 -3.35755,5.87571 -1.25908,5.87571 5.03632,4.61662 0.83939,10.49234 c 0,0 -1.67877,5.8757 -4.19693,5.45601 -2.51816,-0.41969 -5.87571,-4.19693 -6.7151,-1.67877 -0.83938,2.51816 -4.19693,9.23325 -4.19693,9.23325 0,0 -3.77724,2.93785 -3.35755,5.03632 0.4197,2.09846 0.83939,15.10896 0.83939,15.10896 l -10.07264,-1.67878 c 0,0 -5.03632,2.09847 -5.45601,3.77724 -0.4197,1.67878 -2.09847,1.25908 2.51816,5.87571 4.61662,4.61663 5.03632,4.19693 6.71509,5.87571 1.67877,1.67877 3.77724,13.84987 3.77724,13.84987 l -1.61199,6.0474 -5.52279,3.39571 c 0,0 -5.45602,3.14769 -7.55449,3.56739 -2.09846,0.41969 -7.13478,1.25908 -9.65294,1.25908 -2.51816,0 -3.35755,0 -10.07264,-2.93786 -6.71509,-2.93785 -3.77724,-0.41969 -7.55448,-0.41969 -3.77724,0 -13.84988,-1.67877 -13.84988,-1.67877 0,0 -3.77724,-1.67878 -5.45601,-2.93786 -1.67878,-1.25908 -7.55448,-5.45601 -7.55448,-5.45601 l -12.171107,3.35755 -5.456013,-5.03632 c 0,0 -6.2954,-4.19694 -8.813559,-5.87571 -2.51816,-1.67877 -15.776621,-9.44302 -15.776621,-9.44302 l -6.047431,8.18394 c 0,0 -2.937853,-2.51816 -6.2954,-5.03632 -3.357546,-2.51816 -10.492332,-0.83938 -10.492332,-0.83938 l -4.616626,9.65294 c 0,0 -1.25908,6.2954 -1.678774,7.97417 -0.419693,1.67878 -5.875706,0.4197 -5.875706,0.4197 l -3.357546,2.93785 -5.456013,-2.51816"
         id="path3160"
         inkscape:connector-curvature="0"
         sodipodi:nodetypes="ccsssccccccccsscsccssscccsssscscccsccsccsccc" />
    </g>
    <g
       inkscape:groupmode="layer"
       id="layer5"
       inkscape:label="dashed"
       style="display:inline">
      <path
         style="color:#000000;fill:none;stroke:#000000;stroke-width:1;stroke-linecap:butt;stroke-linejoin:miter;stroke-miterlimit:4;stroke-opacity:1;stroke-dasharray:none;stroke-dashoffset:0;marker:none;visibility:visible;display:inline;overflow:visible;enable-background:accumulate"
         d="m 110.56803,684.07922 2.23197,-4.979 c 0,0 6.86758,-2.57534 8.0694,-2.57534 1.20183,0 9.7863,-1.20183 9.7863,-1.20183 l 5.32238,-3.94886 -2.66119,-5.92329 c -2.14612,-1.45935 -10.5589,-8.32693 -10.5589,-8.32693 l -6.18083,-6.00914 c 0,0 -2.23196,-6.5242 -2.57534,-8.0694 -0.34338,-1.54521 -1.37351,-9.44292 -2.06027,-10.30137 -0.68676,-0.85845 -4.12055,-4.80731 -4.46393,-5.83744 -0.34338,-1.03014 -0.68676,-1.7169 -0.51507,-4.12055 0.17169,-2.40366 -1.37351,-7.38265 -1.5452,-8.2411 -0.17169,-0.85845 -4.29224,-6.00913 -4.979,-7.03927 -0.686756,-1.03013 -3.605477,-4.63561 -3.948856,-8.58447 -0.343379,-3.94886 4.463926,-6.5242 4.463926,-6.5242 0,0 7.21096,-3.43379 7.38265,-4.46393 0.17169,-1.03014 -0.34338,-8.75616 -0.34338,-8.75616 l 19.40091,-6.86758 c 0,0 12.87671,-5.15069 14.07854,-5.49407 1.20183,-0.34338 8.2411,-4.97899 8.2411,-4.97899 0,0 5.49406,-5.83744 5.66575,-6.69589 0.17169,-0.85845 -2.57534,-8.41279 -2.57534,-8.41279 l 8.58447,-16.3105 0.51507,-7.38265 -1.88858,-9.61461 3.43379,-9.09954 4.8073,-5.66575 c 0,0 -4.63562,-2.74704 -4.8073,-3.43379 -0.17169,-0.68676 1.5452,-5.83745 1.5452,-5.83745 0,0 11.33151,1.7169 12.18995,1.7169 0.85845,0 6.52421,-4.29224 6.52421,-4.29224 l 6.18082,-10.30137 c 0,0 10.12968,-4.29224 10.81643,-4.29224 0.68676,0 8.06941,-1.5452 8.06941,-1.5452 0,0 1.88859,-6.86758 2.23196,-7.72603 0.34338,-0.85845 -1.5452,-5.66575 -2.23196,-6.00913 -0.68676,-0.34338 -5.66575,-2.06027 -5.49406,-2.74703 0.17169,-0.68676 4.29223,-7.38265 4.29223,-7.38265 0,0 4.29224,-6.35251 5.15069,-6.86758 0.85845,-0.51507 12.70502,-10.47306 12.70502,-10.47306 l 8.41279,-1.5452 21.28949,12.18995 6.69589,0.17169 3.2621,2.74703 12.36165,2.91872 -0.51507,-3.94886 c 0,0 -1.7169,-3.60548 -2.40365,-3.94885 -0.68676,-0.34338 -3.09041,-1.54521 -3.2621,-2.23197 -0.17169,-0.68676 0,-4.97899 0,-4.97899 l 15.28036,-12.87672 12.87671,0 9.27123,-1.71689 c 0,0 8.58448,0.34338 9.61462,-0.17169 1.03013,-0.51507 5.32237,-3.60548 5.32237,-3.60548 l 8.92785,-0.34338 3.43379,0.17169 7.38265,-2.57534 5.32238,-1.20183 10.64474,2.74703 1.88859,4.12055 2.06027,4.80731 10.98813,-0.17169 -0.85845,-7.72603 c 0,0 6.00914,-5.83744 4.80731,-5.83744 -1.20183,0 -0.34338,-8.75617 -0.34338,-8.75617 l 3.77717,-9.7863 c 0,0 1.71689,-6.00913 2.06027,-7.38264 0.34338,-1.37352 3.60548,-10.64475 3.60548,-10.64475 l 1.54521,-9.44292 11.3315,-10.64475 6.00914,-6.86758 4.29223,-1.03014 12.53334,3.94886 5.32237,1.37351 10.64475,2.91873 3.94886,4.12054 c 0,0 4.29223,3.60548 5.32237,3.60548 1.03014,0 4.979,-1.5452 5.15069,-2.23196 0.17169,-0.68676 -1.20183,-4.979 -1.20183,-4.979 0,0 2.06027,-3.94885 3.09041,-3.94885 1.03014,0 15.28036,0.85844 15.28036,0.85844 0,0 4.979,-0.68675 6.18083,-1.20182 1.20182,-0.51507 6.35251,-3.60548 7.03927,-3.94886 0.68675,-0.34338 6.86758,-5.66575 6.86758,-5.66575 l 1.37351,-6.18083 8.41279,-5.15068 c 0,0 -0.34338,-4.63562 -0.34338,-5.32238 0,-0.68675 -3.60548,-3.77716 -3.60548,-3.77716 l 1.5452,-6.00914 c 0,0 6.69589,-6.86758 6.69589,-7.55433 0,-0.68676 -0.17169,-5.66576 -0.17169,-5.66576 l -2.74703,-6.5242 -3.2621,-11.3315 7.21096,-3.43379 10.12968,4.12054 13.39178,-0.68675 14.67945,-7.64018 c 2.83288,-3.51964 8.32694,-5.92329 8.32694,-5.92329 l 4.63562,-0.85845 -1.54521,-7.03927 8.84202,-13.99269 c 0.0858,-1.97443 -0.60092,-5.92329 -0.77261,-7.98357 -0.17169,-2.06027 -0.85845,-6.00913 -0.34338,-7.21095 0.51507,-1.20183 1.20183,-6.69589 1.20183,-6.69589 l -0.85845,-7.72603 -1.88859,-6.00913 c 0,0 -3.77716,-4.46393 -3.09041,-5.49407 0.68676,-1.03013 1.88859,-5.66575 2.23197,-6.35251 0.34338,-0.68676 0.85844,-10.81644 0.85844,-10.81644 l -2.23196,-4.46392 0.85845,-3.35048"
         id="path3023"
         inkscape:connector-curvature="0"
         sodipodi:nodetypes="ccscccccssssssscsccscsccccccscsccscssscscccccccssccccsccccccccccsccscccccccccsscscsscccsccscccccccccccsscccssccc" />
      <path
         style="fill:none;stroke:#000000;stroke-width:4;stroke-linecap:butt;stroke-linejoin:miter;stroke-miterlimit:4;stroke-opacity:1;stroke-dasharray:none;stroke-dashoffset:0"
         d="m 415.19759,27.862806 4.12769,7.526974 c 0,0 7.28417,-2.913667 8.25539,-3.156473 0.97123,-0.242805 6.55575,3.399279 7.76978,3.642084 1.21403,0.242806 10.19784,3.88489 10.19784,3.88489 l 0.72841,8.498196 c 0,0 -6.07014,23.309339 -6.55575,24.766172 -0.48561,1.456834 4.61331,6.555752 4.61331,6.555752 0,0 6.79856,3.642084 8.741,4.127695 1.94245,0.485611 9.46942,6.312946 9.46942,6.312946 0,0 0.97122,5.098917 1.21403,6.312946 0.2428,1.214028 7.04136,0.485611 7.04136,0.485611 l -0.48561,11.169061 5.34172,11.89747 11.87197,4.08455 10.54306,-1.3161 c 0,0 13.22009,-5.49406 13.90685,-5.66575 0.68676,-0.17169 9.44292,3.77717 10.47306,4.46392 1.03014,0.68676 7.55434,7.21096 7.55434,7.21096 l -1.03014,50.82009 c 0,0 4.63562,1.54521 5.66575,1.37352 1.03014,-0.17169 6.18083,-2.57534 6.86758,-3.2621 0.68676,-0.68676 5.66576,2.06027 6.52421,2.06027 0.85844,0 17.68401,-3.09041 17.68401,-3.09041 l 7.72603,0.85845 5.32237,4.46392 c 0,0 7.38265,-4.46392 7.89772,-4.46392 0.51507,0 20.43105,10.98813 20.43105,10.98813 l 4.12055,-3.94886 4.12055,-2.40366 c 0,0 6.18082,-0.34337 6.86758,-0.34337 0.68675,0 5.49406,-2.57535 5.49406,-2.57535 l 5.66575,-4.46392 -0.17169,-4.979 c 0,0 -0.68676,-5.83744 -0.51507,-6.69589 0.17169,-0.85845 3.43379,-5.83744 3.43379,-5.83744 0,0 5.66576,-2.23197 7.03927,-2.40366 1.37352,-0.17168 12.70503,1.03014 13.90685,1.20183"
         id="path3031"
         inkscape:connector-curvature="0"
         sodipodi:nodetypes="ccssccscscscccccssccssscccscccscccscsc" />
      <path
         style="fill:none;stroke:#000000;stroke-width:4;stroke-linecap:butt;stroke-linejoin:miter;stroke-miterlimit:4;stroke-opacity:1;stroke-dasharray:none;stroke-dashoffset:0"
         d="m 232.60777,29.562446 1.69964,0 c 0,0 4.1277,4.613306 4.3705,5.584529 0.24281,0.971222 -1.45683,5.584529 -2.18525,7.769779 -0.72842,2.185251 -2.67086,7.526974 -2.67086,7.526974 0,0 7.04136,5.098918 8.25539,5.827334 1.21403,0.728417 10.44064,2.428056 15.05395,2.428056 4.6133,0 27.43703,-4.613306 27.43703,-4.613306 l 19.42445,-0.485611 c 0,0 8.741,0.971222 12.14028,1.456833 3.39928,0.485612 11.77608,0.607014 11.77608,0.607014 l 6.91995,-4.977515 4.3705,-0.242805 4.85611,-6.312946 c 0,0 6.55576,-13.839919 7.28417,-14.811142"
         id="path3035"
         inkscape:connector-curvature="0"
         sodipodi:nodetypes="ccsscssccsccccc" />
      <path
         style="fill:none;stroke:#000000;stroke-width:4;stroke-linecap:butt;stroke-linejoin:miter;stroke-miterlimit:4;stroke-opacity:1;stroke-dasharray:none;stroke-dashoffset:0"
         d="m 209.29844,28.591223 -75.51255,72.598877 -8.01259,-3.399279 -6.79855,2.913669 c 0,0 -6.55575,-0.728418 -7.76978,-1.456835 -1.21403,-0.728417 -6.79856,-3.156473 -6.79856,-3.156473 l -4.3705,8.498198 c 0,0 -1.456834,7.52697 -1.699639,8.741 -0.242806,1.21403 -2.428056,11.89747 -2.428056,11.89747 l -1.456834,19.66726 -2.549459,16.99639 -3.520681,9.22661 -3.642084,10.19784 -5.584529,11.41186 -8.741002,-2.18525 c 0,0 -8.983808,-4.12769 -9.95503,-4.3705 -0.971222,-0.2428 -10.440641,-0.2428 -10.440641,-0.2428 l -4.856112,3.64208 -0.728417,8.25539 -7.526974,7.76978 -10.440641,5.82734 -10.926252,-2.18526"
         id="path3039"
         inkscape:connector-curvature="0"
         sodipodi:nodetypes="ccccsccscccccccscccccc" />
    </g>
  </g>
  <g
     inkscape:groupmode="layer"
     id="layer7"
     inkscape:label="labels"
     style="display:inline">
    <text
       xml:space="preserve"
       style="font-size:17.8125px;font-style:normal;font-variant:normal;font-weight:normal;font-stretch:normal;text-align:start;line-height:125%;letter-spacing:0px;word-spacing:0px;writing-mode:lr;text-anchor:start;fill:#000000;fill-opacity:1;stroke:none;font-family:Linux Libertine O;-inkscape-font-specification:Linux Libertine O"
       x="421.51053"
       y="442.5748"
       id="text3811"
       sodipodi:linespacing="125%"><tspan
         sodipodi:role="line"
         id="tspan3813"
         x="421.51053"
         y="442.5748">Bamoun</tspan></text>
    <text
       xml:space="preserve"
       style="font-size:17.8125px;font-style:normal;font-variant:normal;font-weight:normal;font-stretch:normal;text-align:start;line-height:125%;letter-spacing:0px;word-spacing:0px;writing-mode:lr;text-anchor:start;fill:#000000;fill-opacity:1;stroke:none;font-family:Linux Libertine O;-inkscape-font-specification:Linux Libertine O"
       x="343.81274"
       y="74.481483"
       id="text3815"
       sodipodi:linespacing="125%"><tspan
         sodipodi:role="line"
         id="tspan3817"
         x="343.81274"
         y="74.481483">Juxun</tspan></text>
    <text
       xml:space="preserve"
       style="font-size:17.8125px;font-style:normal;font-variant:normal;font-weight:normal;font-stretch:normal;text-align:start;line-height:125%;letter-spacing:0px;word-spacing:0px;writing-mode:lr;text-anchor:start;fill:#000000;fill-opacity:1;stroke:none;font-family:Linux Libertine O;-inkscape-font-specification:Linux Libertine O"
       x="369.06451"
       y="99.566628"
       id="text3819"
       sodipodi:linespacing="125%"><tspan
         sodipodi:role="line"
         id="tspan3821"
         x="369.06451"
         y="99.566628">Mbembe</tspan></text>
    <text
       xml:space="preserve"
       style="font-size:17.8125px;font-style:normal;font-variant:normal;font-weight:normal;font-stretch:normal;text-align:start;line-height:125%;letter-spacing:0px;word-spacing:0px;writing-mode:lr;text-anchor:start;fill:#000000;fill-opacity:1;stroke:none;font-family:Linux Libertine O;-inkscape-font-specification:Linux Libertine O"
       x="415.80103"
       y="117.78419"
       id="text3823"
       sodipodi:linespacing="125%"><tspan
         sodipodi:role="line"
         id="tspan3825"
         x="415.80103"
         y="117.78419">Adere</tspan></text>
    <text
       xml:space="preserve"
       style="font-size:17.8125px;font-style:normal;font-variant:normal;font-weight:normal;font-stretch:normal;text-align:start;line-height:125%;letter-spacing:0px;word-spacing:0px;writing-mode:lr;text-anchor:start;fill:#000000;fill-opacity:1;stroke:none;font-family:Linux Libertine O;-inkscape-font-specification:Linux Libertine O"
       x="345.11725"
       y="162.41162"
       id="text3827"
       sodipodi:linespacing="125%"><tspan
         sodipodi:role="line"
         id="tspan3829"
         x="345.11725"
         y="162.41162">Nchanti</tspan></text>
    <text
       xml:space="preserve"
       style="font-size:17.8125px;font-style:normal;font-variant:normal;font-weight:normal;font-stretch:normal;text-align:start;line-height:125%;letter-spacing:0px;word-spacing:0px;writing-mode:lr;text-anchor:start;fill:#000000;fill-opacity:1;stroke:none;font-family:Linux Libertine O;-inkscape-font-specification:Linux Libertine O"
       x="396.14093"
       y="207.60799"
       id="text3831"
       sodipodi:linespacing="125%"><tspan
         sodipodi:role="line"
         id="tspan3833"
         x="396.14093"
         y="207.60799">Limbum</tspan></text>
    <text
       xml:space="preserve"
       style="font-size:17.8125px;font-style:normal;font-variant:normal;font-weight:normal;font-stretch:normal;text-align:start;line-height:125%;letter-spacing:0px;word-spacing:0px;writing-mode:lr;text-anchor:start;fill:#000000;fill-opacity:1;stroke:none;font-family:Linux Libertine O;-inkscape-font-specification:Linux Libertine O"
       x="189.38837"
       y="65.740479"
       id="text3835"
       sodipodi:linespacing="125%"><tspan
         sodipodi:role="line"
         id="tspan3837"
         x="189.38837"
         y="65.740479">Jukun</tspan></text>
    <text
       xml:space="preserve"
       style="font-size:17.8125px;font-style:normal;font-variant:normal;font-weight:normal;font-stretch:normal;text-align:start;line-height:125%;letter-spacing:0px;word-spacing:0px;writing-mode:lr;text-anchor:start;fill:#000000;fill-opacity:1;stroke:none;font-family:Linux Libertine O;-inkscape-font-specification:Linux Libertine O"
       x="250.57539"
       y="165.77638"
       id="text3839"
       sodipodi:linespacing="125%"><tspan
         sodipodi:role="line"
         id="tspan3841"
         x="250.57539"
         y="165.77638">Missong</tspan></text>
    <text
       xml:space="preserve"
       style="font-size:17.8125px;font-style:normal;font-variant:normal;font-weight:normal;font-stretch:normal;text-align:start;line-height:125%;letter-spacing:0px;word-spacing:0px;writing-mode:lr;text-anchor:start;fill:#000000;fill-opacity:1;stroke:none;font-family:Linux Libertine O;-inkscape-font-specification:Linux Libertine O"
       x="233.09338"
       y="189.08572"
       id="text3843"
       sodipodi:linespacing="125%"><tspan
         sodipodi:role="line"
         id="tspan3845"
         x="233.09338"
         y="189.08572">Mekaf</tspan></text>
    <text
       xml:space="preserve"
       style="font-size:17.8125px;font-style:normal;font-variant:normal;font-weight:normal;font-stretch:normal;text-align:start;line-height:125%;letter-spacing:0px;word-spacing:0px;writing-mode:lr;text-anchor:start;fill:#000000;fill-opacity:1;stroke:none;font-family:Linux Libertine O;-inkscape-font-specification:Linux Libertine O"
       x="19.30662"
       y="185.26987"
       id="text3847"
       sodipodi:linespacing="125%"><tspan
         sodipodi:role="line"
         id="tspan3849"
         x="19.30662"
         y="185.26987">Tiv</tspan></text>
    <text
       xml:space="preserve"
       style="font-size:17.8125px;font-style:normal;font-variant:normal;font-weight:normal;font-stretch:normal;text-align:start;line-height:125%;letter-spacing:0px;word-spacing:0px;writing-mode:lr;text-anchor:start;fill:#000000;fill-opacity:1;stroke:none;font-family:Linux Libertine O;-inkscape-font-specification:Linux Libertine O"
       x="101.29159"
       y="210.00153"
       id="text3851"
       sodipodi:linespacing="125%"><tspan
         sodipodi:role="line"
         id="tspan3853"
         x="101.29159"
         y="210.00153">Esimbi</tspan></text>
    <text
       xml:space="preserve"
       style="font-size:17.8125px;font-style:normal;font-variant:normal;font-weight:normal;font-stretch:normal;text-align:start;line-height:125%;letter-spacing:0px;word-spacing:0px;writing-mode:lr;text-anchor:start;fill:#000000;fill-opacity:1;stroke:none;font-family:Linux Libertine O;-inkscape-font-specification:Linux Libertine O"
       x="178.51807"
       y="235.65561"
       id="text3855"
       sodipodi:linespacing="125%"><tspan
         sodipodi:role="line"
         id="tspan3857"
         x="178.51807"
         y="235.65561">Aghem</tspan></text>
    <text
       xml:space="preserve"
       style="font-size:17.8125px;font-style:normal;font-variant:normal;font-weight:normal;font-stretch:normal;text-align:start;line-height:125%;letter-spacing:0px;word-spacing:0px;writing-mode:lr;text-anchor:start;fill:#000000;fill-opacity:1;stroke:none;font-family:Linux Libertine O;-inkscape-font-specification:Linux Libertine O"
       x="236.97827"
       y="278.4382"
       id="text3859"
       sodipodi:linespacing="125%"><tspan
         sodipodi:role="line"
         id="tspan3861"
         x="236.97827"
         y="278.4382">Kom</tspan></text>
    <text
       xml:space="preserve"
       style="font-size:17.8125px;font-style:normal;font-variant:normal;font-weight:normal;font-stretch:normal;text-align:start;line-height:125%;letter-spacing:0px;word-spacing:0px;writing-mode:lr;text-anchor:start;fill:#000000;fill-opacity:1;stroke:none;font-family:Linux Libertine O;-inkscape-font-specification:Linux Libertine O"
       x="303.02139"
       y="561.0639"
       id="text3867"
       sodipodi:linespacing="125%"><tspan
         sodipodi:role="line"
         id="tspan3869"
         x="303.02139"
         y="561.0639">Jo</tspan></text>
    <text
       xml:space="preserve"
       style="font-size:17.8125px;font-style:normal;font-variant:normal;font-weight:normal;font-stretch:normal;text-align:start;line-height:125%;letter-spacing:0px;word-spacing:0px;writing-mode:lr;text-anchor:start;fill:#000000;fill-opacity:1;stroke:none;font-family:Linux Libertine O;-inkscape-font-specification:Linux Libertine O"
       x="317.92303"
       y="643.09772"
       id="text3871"
       sodipodi:linespacing="125%"><tspan
         sodipodi:role="line"
         id="tspan3873"
         x="317.92303"
         y="643.09772">Bangangte</tspan></text>
    <text
       xml:space="preserve"
       style="font-size:17.8125px;font-style:normal;font-variant:normal;font-weight:normal;font-stretch:normal;text-align:start;line-height:125%;letter-spacing:0px;word-spacing:0px;writing-mode:lr;text-anchor:start;fill:#000000;fill-opacity:1;stroke:none;font-family:Linux Libertine O;-inkscape-font-specification:Linux Libertine O"
       x="180.64737"
       y="534.84088"
       id="text3875"
       sodipodi:linespacing="125%"><tspan
         sodipodi:role="line"
         id="tspan3877"
         x="180.64737"
         y="534.84088">Dschang</tspan></text>
    <text
       xml:space="preserve"
       style="font-size:17.8125px;font-style:normal;font-variant:normal;font-weight:normal;font-stretch:normal;text-align:start;line-height:125%;letter-spacing:0px;word-spacing:0px;writing-mode:lr;text-anchor:start;fill:#000000;fill-opacity:1;stroke:none;font-family:Linux Libertine O;-inkscape-font-specification:Linux Libertine O"
       x="216.98489"
       y="632.19879"
       id="text3879"
       sodipodi:linespacing="125%"><tspan
         sodipodi:role="line"
         id="tspan3881"
         x="216.98489"
         y="632.19879">Fe'fe'</tspan></text>
    <text
       xml:space="preserve"
       style="font-size:17.8125px;font-style:normal;font-variant:normal;font-weight:normal;font-stretch:normal;text-align:start;line-height:125%;letter-spacing:0px;word-spacing:0px;writing-mode:lr;text-anchor:start;fill:#000000;fill-opacity:1;stroke:none;font-family:Linux Libertine O;-inkscape-font-specification:Linux Libertine O"
       x="117.51791"
       y="529.9848"
       id="text3883"
       sodipodi:linespacing="125%"><tspan
         sodipodi:role="line"
         id="tspan3885"
         x="117.51791"
         y="529.9848">Ngwe</tspan></text>
    <text
       xml:space="preserve"
       style="font-size:17.8125px;font-style:normal;font-variant:normal;font-weight:normal;font-stretch:normal;text-align:start;line-height:125%;letter-spacing:0px;word-spacing:0px;writing-mode:lr;text-anchor:start;fill:#000000;fill-opacity:1;stroke:none;font-family:Linux Libertine O;-inkscape-font-specification:Linux Libertine O"
       x="29.421137"
       y="475.832"
       id="text3887"
       sodipodi:linespacing="125%"><tspan
         sodipodi:role="line"
         id="tspan3889"
         x="29.421137"
         y="475.832">Manyu</tspan></text>
    <text
       xml:space="preserve"
       style="font-size:17.8125px;font-style:normal;font-variant:normal;font-weight:normal;font-stretch:normal;text-align:start;line-height:125%;letter-spacing:0px;word-spacing:0px;writing-mode:lr;text-anchor:start;fill:#000000;fill-opacity:1;stroke:none;font-family:Linux Libertine O;-inkscape-font-specification:Linux Libertine O"
       x="68.721138"
       y="405.61954"
       id="text3891"
       sodipodi:linespacing="125%"><tspan
         sodipodi:role="line"
         id="tspan3893"
         x="68.721138"
         y="405.61954">Moghamo</tspan></text>
    <text
       xml:space="preserve"
       style="font-size:17.8125px;font-style:normal;font-variant:normal;font-weight:normal;font-stretch:normal;text-align:start;line-height:125%;letter-spacing:0px;word-spacing:0px;writing-mode:lr;text-anchor:start;fill:#000000;fill-opacity:1;stroke:none;font-family:Linux Libertine O;-inkscape-font-specification:Linux Libertine O"
       x="108.94355"
       y="366.77063"
       id="text3895"
       sodipodi:linespacing="125%"><tspan
         sodipodi:role="line"
         id="tspan3897"
         x="108.94355"
         y="366.77063">Ngie</tspan></text>
    <text
       xml:space="preserve"
       style="font-size:17.8125px;font-style:normal;font-variant:normal;font-weight:normal;font-stretch:normal;text-align:start;line-height:125%;letter-spacing:0px;word-spacing:0px;writing-mode:lr;text-anchor:start;fill:#000000;fill-opacity:1;stroke:none;font-family:Linux Libertine O;-inkscape-font-specification:Linux Libertine O"
       x="120.59822"
       y="304.49457"
       id="text3899"
       sodipodi:linespacing="125%"><tspan
         sodipodi:role="line"
         id="tspan3901"
         x="120.59822"
         y="304.49457">Ngwo</tspan></text>
    <text
       xml:space="preserve"
       style="font-size:17.8125px;font-style:normal;font-variant:normal;font-weight:normal;font-stretch:normal;text-align:start;line-height:125%;letter-spacing:0px;word-spacing:0px;writing-mode:lr;text-anchor:start;fill:#000000;fill-opacity:1;stroke:none;font-family:Linux Libertine O;-inkscape-font-specification:Linux Libertine O"
       x="187.44592"
       y="315.34464"
       id="text3903"
       sodipodi:linespacing="125%"><tspan
         sodipodi:role="line"
         id="tspan3905"
         x="187.44592"
         y="315.34464">Obang</tspan></text>
    <text
       xml:space="preserve"
       style="font-size:17.8125px;font-style:normal;font-variant:normal;font-weight:normal;font-stretch:normal;text-align:start;line-height:125%;letter-spacing:0px;word-spacing:0px;writing-mode:lr;text-anchor:start;fill:#000000;fill-opacity:1;stroke:none;font-family:Linux Libertine O;-inkscape-font-specification:Linux Libertine O"
       x="244.26244"
       y="333.31229"
       id="text3907"
       sodipodi:linespacing="125%"><tspan
         sodipodi:role="line"
         id="tspan3909"
         x="244.26244"
         y="333.31229">Babanki</tspan></text>
    <text
       xml:space="preserve"
       style="font-size:17.8125px;font-style:normal;font-variant:normal;font-weight:normal;font-stretch:normal;text-align:start;line-height:125%;letter-spacing:0px;word-spacing:0px;writing-mode:lr;text-anchor:start;fill:#000000;fill-opacity:1;stroke:none;font-family:Linux Libertine O;-inkscape-font-specification:Linux Libertine O"
       x="227.99446"
       y="347.63779"
       id="text3911"
       sodipodi:linespacing="125%"><tspan
         sodipodi:role="line"
         id="tspan3913"
         x="227.99446"
         y="347.63779">Bafut</tspan></text>
    <text
       xml:space="preserve"
       style="font-size:17.8125px;font-style:normal;font-variant:normal;font-weight:normal;font-stretch:normal;text-align:start;line-height:125%;letter-spacing:0px;word-spacing:0px;writing-mode:lr;text-anchor:start;fill:#000000;fill-opacity:1;stroke:none;font-family:Linux Libertine O;-inkscape-font-specification:Linux Libertine O"
       x="217.55382"
       y="369.73309"
       id="text3915"
       sodipodi:linespacing="125%"><tspan
         sodipodi:role="line"
         id="tspan3917"
         x="217.55382"
         y="369.73309">Mankon</tspan></text>
    <text
       xml:space="preserve"
       style="font-size:17.8125px;font-style:normal;font-variant:normal;font-weight:normal;font-stretch:normal;text-align:start;line-height:125%;letter-spacing:0px;word-spacing:0px;writing-mode:lr;text-anchor:start;fill:#000000;fill-opacity:1;stroke:none;font-family:Linux Libertine O;-inkscape-font-specification:Linux Libertine O"
       x="181.86139"
       y="400.32663"
       id="text3919"
       sodipodi:linespacing="125%"><tspan
         sodipodi:role="line"
         id="tspan3921"
         x="181.86139"
         y="400.32663">Mungaka</tspan></text>
    <text
       xml:space="preserve"
       style="font-size:17.8125px;font-style:normal;font-variant:normal;font-weight:normal;font-stretch:normal;text-align:start;line-height:125%;letter-spacing:0px;word-spacing:0px;writing-mode:lr;text-anchor:start;fill:#000000;fill-opacity:1;stroke:none;font-family:Linux Libertine O;-inkscape-font-specification:Linux Libertine O"
       x="354.49619"
       y="247.35909"
       id="text3923"
       sodipodi:linespacing="125%"><tspan
         sodipodi:role="line"
         id="tspan3925"
         x="354.49619"
         y="247.35909">Noni</tspan></text>
    <text
       xml:space="preserve"
       style="font-size:17.8125px;font-style:normal;font-variant:normal;font-weight:normal;font-stretch:normal;text-align:start;line-height:125%;letter-spacing:0px;word-spacing:0px;writing-mode:lr;text-anchor:start;fill:#000000;fill-opacity:1;stroke:none;font-family:Linux Libertine O;-inkscape-font-specification:Linux Libertine O"
       x="380.23358"
       y="295.19177"
       id="text3927"
       sodipodi:linespacing="125%"><tspan
         sodipodi:role="line"
         id="tspan3929"
         x="380.23358"
         y="295.19177">Lamnso'</tspan></text>
    <text
       xml:space="preserve"
       style="font-size:17.81249998px;font-style:normal;font-variant:normal;font-weight:normal;font-stretch:normal;text-align:start;line-height:125%;letter-spacing:0px;word-spacing:0px;writing-mode:lr;text-anchor:start;fill:#000000;fill-opacity:1;stroke:none;font-family:Arimo;-inkscape-font-specification:Arimo"
       x="-157.59836"
       y="102.38599"
       id="text3906"
       sodipodi:linespacing="125%"
       transform="matrix(0.12911291,-0.9916299,0.9916299,0.12911291,0,0)"
       inkscape:transform-center-y="6.3595907"
       inkscape:transform-center-x="-4.8316312"><tspan
         sodipodi:role="line"
         id="tspan3908"
         x="-157.59836"
         y="102.38599">Nigeria</tspan></text>
    <text
       xml:space="preserve"
       style="font-size:17.8125px;font-style:normal;font-variant:normal;font-weight:normal;font-stretch:normal;text-align:start;line-height:125%;letter-spacing:0px;word-spacing:0px;writing-mode:lr;text-anchor:start;fill:#000000;fill-opacity:1;stroke:none;font-family:Arimo;-inkscape-font-specification:Arimo"
       id="text3910"
       sodipodi:linespacing="125%"
       transform="translate(-1.9424448,-9.7122243)"><textPath
         xlink:href="#path3031"
         id="textPath3922"><tspan
   id="tspan3912"
   dx="0 269.99969 -0.9712224 -1.9424448 4.856112 0 0 0.9712224"
   style="-inkscape-font-specification:Arimo;font-family:Arimo;font-weight:normal;font-style:normal;font-stretch:normal;font-variant:normal;font-size:17.8125px;text-anchor:start;text-align:start;writing-mode:lr;line-height:125%"> Nigeria</tspan></textPath></text>
    <text
       transform="translate(-2.0485522e-6,-1.9533369e-6)"
       xml:space="preserve"
       style="font-size:17.81250000000000000px;font-style:normal;font-variant:normal;font-weight:normal;font-stretch:normal;text-indent:0;text-align:start;text-decoration:none;line-height:125%;letter-spacing:0px;word-spacing:0px;text-transform:none;direction:ltr;block-progression:tb;writing-mode:lr-tb;text-anchor:start;baseline-shift:baseline;color:#000000;fill:#000000;fill-opacity:1;fill-rule:nonzero;stroke:none;marker:none;visibility:visible;display:inline;overflow:visible;enable-background:accumulate;font-family:Arimo;-inkscape-font-specification:Arimo"
       id="text3928"
       sodipodi:linespacing="125%"><textPath
         xlink:href="#path3960-3"
         id="textPath3962"><tspan
   id="tspan3930"
   style="font-size:17.81250000000000000px;font-style:normal;font-variant:normal;font-weight:normal;font-stretch:normal;text-indent:0;text-align:start;text-decoration:none;line-height:125%;letter-spacing:0px;word-spacing:0px;text-transform:none;direction:ltr;block-progression:tb;writing-mode:lr-tb;text-anchor:start;baseline-shift:baseline;color:#000000;fill:#000000;fill-opacity:1;fill-rule:nonzero;stroke:none;marker:none;visibility:visible;display:inline;overflow:visible;enable-background:accumulate;font-family:Arimo;-inkscape-font-specification:Arimo">Cameroon</tspan></textPath></text>
    <text
       xml:space="preserve"
       style="font-size:16px;font-style:oblique;font-variant:normal;font-weight:normal;font-stretch:normal;text-indent:0;text-align:start;text-decoration:none;line-height:125%;letter-spacing:0px;word-spacing:0px;text-transform:none;direction:ltr;block-progression:tb;writing-mode:lr-tb;text-anchor:start;baseline-shift:baseline;color:#000000;fill:#000000;fill-opacity:1;fill-rule:nonzero;stroke:none;marker:none;visibility:visible;display:inline;overflow:visible;enable-background:accumulate;font-family:DejaVu Sans;-inkscape-font-specification:DejaVu Sans Oblique"
       id="text5572"
       sodipodi:linespacing="125%"
       transform="translate(8.7410015,14.568336)"><textPath
         xlink:href="#path3035"
         id="textPath5619"><tspan
   id="tspan5574"
   dx="37.392048">Cameroon</tspan></textPath></text>
    <text
       xml:space="preserve"
       style="font-size:16px;font-style:oblique;font-variant:normal;font-weight:normal;font-stretch:normal;text-align:start;line-height:125%;letter-spacing:0px;word-spacing:0px;writing-mode:lr-tb;text-anchor:start;fill:#000000;fill-opacity:1;stroke:none;display:inline;font-family:DejaVu Sans;-inkscape-font-specification:DejaVu Sans Oblique"
       x="262.30368"
       y="55.779572"
       id="text3906-9"
       sodipodi:linespacing="125%"
       transform="matrix(0.99955312,-0.02989244,0.02989244,0.99955312,0,0)"
       inkscape:transform-center-y="6.9705716"
       inkscape:transform-center-x="5.3543824"><tspan
         sodipodi:role="line"
         id="tspan3908-1"
         x="262.30368"
         y="55.779572">Nigeria</tspan></text>
  </g>
  <g
     inkscape:groupmode="layer"
     id="layer6"
     inkscape:label="frame"
     style="display:inline">
    <rect
       style="fill:none;stroke:#000000;stroke-width:4;stroke-linecap:round;stroke-linejoin:round;stroke-miterlimit:4;stroke-opacity:1;stroke-dasharray:none;stroke-dashoffset:0"
       id="rect3932"
       width="644.58704"
       height="655.85962"
       x="17.030903"
       y="28.549564" />
  </g>
  <g
     inkscape:groupmode="layer"
     id="layer8"
     inkscape:label="ellipsis"
     style="display:inline">
    <path
       transform="matrix(0.74565215,-0.48468718,0.36726051,0.98406453,12.197265,204.35144)"
       sodipodi:type="arc"
       style="opacity:0.45685281;fill:#000000;fill-opacity:1;stroke:#000000;stroke-width:1;stroke-linecap:round;stroke-linejoin:round;stroke-miterlimit:4;stroke-opacity:1;stroke-dasharray:none;stroke-dashoffset:0;display:inline"
       id="path3934"
       sodipodi:cx="271.94229"
       sodipodi:cy="255.61447"
       sodipodi:rx="219.11731"
       sodipodi:ry="97.418999"
       d="m 469.00587,213.0204 a 219.11731,97.418999 0 1 1 -0.0554,-0.0507"
       sodipodi:start="5.830674"
       sodipodi:end="12.113281"
       sodipodi:open="true" />
  </g>
</svg>
